<svg xmlns="http://www.w3.org/2000/svg" viewBox="0 0 48 48" width="48" height="48"><defs><linearGradient id="beG" x1="0" y1="0" x2="1" y2="1"><stop offset="0%" stop-color="#a855f7"></stop><stop offset="100%" stop-color="#3b82f6"></stop></linearGradient></defs><rect width="48" height="48" rx="10" fill="#12151a"></rect><rect width="48" height="48" rx="10" fill="#2a1f3d" opacity="0.45"></rect><rect x="10" y="10" width="28" height="8" rx="3" fill="none" stroke="url(#beG)" stroke-width="1.8"></rect><rect x="10" y="20" width="28" height="8" rx="3" fill="none" stroke="url(#beG)" stroke-width="1.8" opacity="0.75"></rect><rect x="10" y="30" width="28" height="8" rx="3" fill="none" stroke="url(#beG)" stroke-width="1.8" opacity="0.5"></rect><circle cx="33" cy="14" r="2" fill="#22c55e"></circle><circle cx="33" cy="24" r="2" fill="#22c55e" opacity="0.8"></circle><circle cx="33" cy="34" r="2" fill="#eab308" opacity="0.7"></circle><circle cx="33" cy="14" r="4" fill="#22c55e" opacity="0.12"></circle><line x1="14" y1="14" x2="28" y2="14" stroke="#a855f7" stroke-width="1" opacity="0.5"></line><line x1="14" y1="24" x2="25" y2="24" stroke="#a855f7" stroke-width="1" opacity="0.35"></line><line x1="14" y1="34" x2="22" y2="34" stroke="#a855f7" stroke-width="1" opacity="0.2"></line><line x1="38" y1="14" x2="42" y2="14" stroke="#3b82f6" stroke-width="1.2" opacity="0.5"></line><line x1="38" y1="24" x2="42" y2="24" stroke="#3b82f6" stroke-width="1.2" opacity="0.35"></line><line x1="38" y1="34" x2="42" y2="34" stroke="#3b82f6" stroke-width="1.2" opacity="0.2"></line><circle cx="42" cy="14" r="1.5" fill="#3b82f6" opacity="0.7"></circle><circle cx="42" cy="24" r="1.5" fill="#3b82f6" opacity="0.5"></circle><circle cx="42" cy="34" r="1.5" fill="#3b82f6" opacity="0.3"></circle></svg>