<svg xmlns="http://www.w3.org/2000/svg" viewBox="0 0 48 48" width="48" height="48"><defs><linearGradient id="dbB" x1="0" y1="0" x2="1" y2="1"><stop offset="0%" stop-color="#f97316"></stop><stop offset="100%" stop-color="#ef4444"></stop></linearGradient></defs><rect width="48" height="48" rx="10" fill="#12151a"></rect><rect width="48" height="48" rx="10" fill="#2a1a1a" opacity="0.45"></rect><line x1="20" y1="12" x2="16" y2="8" stroke="#f97316" stroke-width="1.8" stroke-linecap="round"></line><line x1="28" y1="12" x2="32" y2="8" stroke="#f97316" stroke-width="1.8" stroke-linecap="round"></line><circle cx="16" cy="8" r="2" fill="#ef4444"></circle><circle cx="32" cy="8" r="2" fill="#ef4444"></circle><ellipse cx="24" cy="14" rx="5" ry="4" fill="#12151a" stroke="url(#dbB)" stroke-width="1.8"></ellipse><ellipse cx="24" cy="28" rx="7" ry="9" fill="#12151a" stroke="url(#dbB)" stroke-width="2"></ellipse><line x1="17" y1="28" x2="31" y2="28" stroke="url(#dbB)" stroke-width="1.2" opacity="0.4"></line><line x1="17" y1="23" x2="11" y2="21" stroke="url(#dbB)" stroke-width="1.5" stroke-linecap="round"></line><line x1="17" y1="28" x2="11" y2="28" stroke="url(#dbB)" stroke-width="1.5" stroke-linecap="round"></line><line x1="17" y1="33" x2="11" y2="35" stroke="url(#dbB)" stroke-width="1.5" stroke-linecap="round"></line><line x1="31" y1="23" x2="37" y2="21" stroke="url(#dbB)" stroke-width="1.5" stroke-linecap="round"></line><line x1="31" y1="28" x2="37" y2="28" stroke="url(#dbB)" stroke-width="1.5" stroke-linecap="round"></line><line x1="31" y1="33" x2="37" y2="35" stroke="url(#dbB)" stroke-width="1.5" stroke-linecap="round"></line></svg>