<svg xmlns="http://www.w3.org/2000/svg" viewBox="0 0 48 48" width="48" height="48"><defs><linearGradient id="feG" x1="0" y1="0" x2="1" y2="1"><stop offset="0%" stop-color="#22c55e"></stop><stop offset="100%" stop-color="#06b6d4"></stop></linearGradient></defs><rect width="48" height="48" rx="10" fill="#12151a"></rect><rect width="48" height="48" rx="10" fill="#1a2e1a" opacity="0.5"></rect><rect x="13" y="17" width="26" height="20" rx="3" fill="none" stroke="#22c55e" stroke-width="1.5" opacity="0.35"></rect><rect x="9" y="13" width="26" height="20" rx="3" fill="#12151a" stroke="url(#feG)" stroke-width="1.8"></rect><rect x="9" y="13" width="26" height="6" rx="3" fill="url(#feG)" opacity="0.2"></rect><line x1="9" y1="19" x2="35" y2="19" stroke="url(#feG)" stroke-width="1" opacity="0.5"></line><circle cx="13" cy="16" r="1.2" fill="#ef4444" opacity="0.8"></circle><circle cx="17" cy="16" r="1.2" fill="#eab308" opacity="0.8"></circle><circle cx="21" cy="16" r="1.2" fill="#22c55e" opacity="0.8"></circle><rect x="12" y="22" width="10" height="2" rx="1" fill="#22c55e" opacity="0.7"></rect><rect x="12" y="26" width="16" height="1.5" rx="0.75" fill="#06b6d4" opacity="0.5"></rect><rect x="12" y="29" width="12" height="1.5" rx="0.75" fill="#06b6d4" opacity="0.3"></rect><rect x="25" y="22" width="7" height="3" rx="1.5" fill="url(#feG)" opacity="0.8"></rect><path d="M34 30 L34 38 L36.5 35.5 L38.5 39 L40 38.2 L38 34.7 L41 34.7 Z" fill="url(#feG)" stroke="#12151a" stroke-width="0.8"></path></svg>