<svg xmlns="http://www.w3.org/2000/svg" viewBox="0 0 100 100" width="96" height="96"><defs><linearGradient id="a96" x1="0%" y1="0%" x2="100%" y2="100%"><stop offset="0%" stop-color="#60a5fa"></stop><stop offset="100%" stop-color="#3b82f6"></stop></linearGradient><linearGradient id="b96" x1="0%" y1="0%" x2="100%" y2="100%"><stop offset="0%" stop-color="#3b82f6"></stop><stop offset="100%" stop-color="#1d4ed8"></stop></linearGradient></defs><polygon points="50,8 84,26 84,74 50,92 16,74 16,26" fill="none" stroke="url(#a96)" stroke-width="2" opacity="0.25"></polygon><polygon points="50,17 76,32 76,68 50,83 24,68 24,32" fill="none" stroke="url(#a96)" stroke-width="1.5" opacity="0.18" transform="rotate(30 50 50)"></polygon><circle cx="50" cy="8" r="3" fill="#3b82f6" opacity="0.9"></circle><circle cx="84" cy="74" r="3" fill="#3b82f6" opacity="0.9"></circle><circle cx="16" cy="74" r="3" fill="#3b82f6" opacity="0.9"></circle><line x1="50" y1="31" x2="50" y2="11" stroke="#3b82f6" stroke-width="1.2" opacity="0.35" stroke-linecap="round"></line><line x1="50" y1="31" x2="81" y2="71" stroke="#3b82f6" stroke-width="1.2" opacity="0.35" stroke-linecap="round"></line><line x1="50" y1="31" x2="19" y2="71" stroke="#3b82f6" stroke-width="1.2" opacity="0.35" stroke-linecap="round"></line><polygon points="50,27 65,36 65,64 50,73 35,64 35,36" fill="url(#b96)" opacity="0.9"></polygon><polygon points="50,27 65,36 50,45 35,36" fill="url(#a96)" opacity="0.55"></polygon><polygon points="50,36 59,41 59,59 50,64 41,59 41,41" fill="#0d0f12" opacity="0.85"></polygon><polygon points="50,36 59,41 59,59 50,64 41,59 41,41" fill="none" stroke="url(#a96)" stroke-width="1" opacity="0.4"></polygon><circle cx="50" cy="50" r="3.5" fill="url(#a96)"></circle></svg>