<svg xmlns="http://www.w3.org/2000/svg" viewBox="0 0 48 48" width="48" height="48"><defs><linearGradient id="doG" x1="0" y1="0" x2="1" y2="1"><stop offset="0%" stop-color="#06b6d4"></stop><stop offset="100%" stop-color="#0ea5e9"></stop></linearGradient></defs><rect width="48" height="48" rx="10" fill="#12151a"></rect><rect width="48" height="48" rx="10" fill="#0c2233" opacity="0.6"></rect><rect x="10" y="14" width="8" height="7" rx="1.5" fill="none" stroke="url(#doG)" stroke-width="1.5"></rect><rect x="20" y="14" width="8" height="7" rx="1.5" fill="none" stroke="url(#doG)" stroke-width="1.5"></rect><rect x="10" y="23" width="8" height="7" rx="1.5" fill="none" stroke="url(#doG)" stroke-width="1.5"></rect><rect x="20" y="23" width="8" height="7" rx="1.5" fill="none" stroke="url(#doG)" stroke-width="1.5"></rect><rect x="30" y="23" width="8" height="7" rx="1.5" fill="url(#doG)" opacity="0.15" stroke="url(#doG)" stroke-width="1.5"></rect><circle cx="14" cy="17.5" r="1" fill="#06b6d4" opacity="0.6"></circle><circle cx="24" cy="17.5" r="1" fill="#06b6d4" opacity="0.6"></circle><circle cx="14" cy="26.5" r="1" fill="#06b6d4" opacity="0.6"></circle><circle cx="24" cy="26.5" r="1" fill="#0ea5e9" opacity="0.6"></circle><circle cx="34" cy="26.5" r="1.5" fill="#06b6d4" opacity="0.9"></circle><path d="M7 34 Q12 31 17 34 Q22 37 27 34 Q32 31 37 34 Q40 36 41 34" fill="none" stroke="url(#doG)" stroke-width="1.8" stroke-linecap="round" opacity="0.8"></path><path d="M36 20 Q38 16 37 14 Q40 14 39 18" fill="none" stroke="#06b6d4" stroke-width="1.2" opacity="0.5" stroke-linecap="round"></path><circle cx="38" cy="13" r="1" fill="#06b6d4" opacity="0.4"></circle></svg>