<svg xmlns="http://www.w3.org/2000/svg" viewBox="0 0 48 48" width="48" height="48"><defs><linearGradient id="exG" x1="0" y1="0" x2="1" y2="1"><stop offset="0%" stop-color="#06b6d4"></stop><stop offset="100%" stop-color="#3b82f6"></stop></linearGradient></defs><rect width="48" height="48" rx="10" fill="#12151a"></rect><rect width="48" height="48" rx="10" fill="#1a2535" opacity="0.5"></rect><circle cx="24" cy="24" r="14" fill="none" stroke="url(#exG)" stroke-width="1.5" opacity="0.3"></circle><circle cx="24" cy="24" r="10" fill="none" stroke="url(#exG)" stroke-width="1" opacity="0.2"></circle><line x1="24" y1="8" x2="24" y2="11" stroke="#06b6d4" stroke-width="1.5" opacity="0.6"></line><line x1="24" y1="37" x2="24" y2="40" stroke="#06b6d4" stroke-width="1.5" opacity="0.6"></line><line x1="8" y1="24" x2="11" y2="24" stroke="#06b6d4" stroke-width="1.5" opacity="0.6"></line><line x1="37" y1="24" x2="40" y2="24" stroke="#06b6d4" stroke-width="1.5" opacity="0.6"></line><line x1="13.5" y1="13.5" x2="15.6" y2="15.6" stroke="#3b82f6" stroke-width="1.2" opacity="0.4"></line><line x1="34.5" y1="13.5" x2="32.4" y2="15.6" stroke="#3b82f6" stroke-width="1.2" opacity="0.4"></line><line x1="13.5" y1="34.5" x2="15.6" y2="32.4" stroke="#3b82f6" stroke-width="1.2" opacity="0.4"></line><line x1="34.5" y1="34.5" x2="32.4" y2="32.4" stroke="#3b82f6" stroke-width="1.2" opacity="0.4"></line><path d="M27 11 L19 25 L24 25 L21 37 L29 23 L24 23 Z" fill="url(#exG)" opacity="0.95"></path><path d="M27 11 L19 25 L24 25 L21 37 L29 23 L24 23 Z" fill="url(#exG)" opacity="0.2" transform="scale(1.15) translate(-3.6,-3.6)"></path></svg>